# xmcd CD database file
#
# Track frame offsets:
#	150
#	10582
#	21430
#	34330
#	45450
#	56032
#	68280
#	80885
#	91445
#	103637
#	114130
#	126252
#	139607
#
# Disc length: 2012 seconds
#
# Revision: 1
# Processed by: cddbd v1.4PL0 Copyright (c) Steve Scherf et al.
# Submitted via: CDex 1.50
#
DISCID=a407da0d
DTITLE=Jimmy McCracklin - The Mercury Recordings
DYEAR=1992
DGENRE=Blues
TTITLE0=The Wobble
TTITLE1=Georgia Slop
TTITLE2=Hitched
TTITLE3=No One To Love Me
TTITLE4=(I'll Be Glad When You're Dead) You Rascal You
TTITLE5=By Myself
TTITLE6=Doomed Lover
TTITLE7=With Your Love
TTITLE8=Let's Do It (The Chicken Scratch)
TTITLE9=The Bridge
TTITLE10=What's That - Pt 1
TTITLE11=What's That - Pt 2
TTITLE12=Folsom Prison Blues
EXTD=YEAR: 1992
EXTT0=
EXTT1=
EXTT2=
EXTT3=
EXTT4=
EXTT5=
EXTT6=
EXTT7=
EXTT8=
EXTT9=
EXTT10=
EXTT11=
EXTT12=
PLAYORDER=
